<svg width="237" height="38" viewBox="0 0 237 38" fill="none" xmlns="http://www.w3.org/2000/svg">
<path d="M23.247 8.2034V33.3279H15.3784V23.534H7.88054V33.3279H0V8.2034H7.88054V17.2439H15.3784V8.2034H23.247Z" fill="#FF5900"/>
<path d="M36.0937 33.579C33.7319 33.579 31.5645 33.0259 29.5884 31.9168C27.6093 30.8017 26.0397 29.262 24.8768 27.3009C23.7198 25.3337 23.1428 23.1155 23.1428 20.652C23.1428 18.1976 23.7198 15.9883 24.8768 14.0271C26.0397 12.06 27.6093 10.5233 29.5884 9.42317C31.5645 8.323 33.7319 7.77292 36.0937 7.77292C38.4614 7.77292 40.6259 8.323 42.5871 9.42317C44.5542 10.5233 46.1148 12.06 47.2628 14.0271C48.4108 15.9883 48.9848 18.1976 48.9848 20.652C48.9848 23.1155 48.4108 25.3337 47.2628 27.3009C46.1148 29.262 44.5512 30.8017 42.5751 31.9168C40.596 33.0259 38.4375 33.579 36.0937 33.579ZM36.0937 26.2246C37.6543 26.2246 38.8621 25.7224 39.7171 24.7179C40.5691 23.7134 40.9966 22.3591 40.9966 20.652C40.9966 18.93 40.5691 17.5668 39.7171 16.5623C38.8621 15.5518 37.6543 15.0436 36.0937 15.0436C34.5152 15.0436 33.2984 15.5518 32.4464 16.5623C31.5914 17.5668 31.1669 18.93 31.1669 20.652C31.1669 22.3591 31.5914 23.7134 32.4464 24.7179C33.2984 25.7224 34.5152 26.2246 36.0937 26.2246ZM32.0518 6.11071C31.1968 6.11071 30.4793 5.82072 29.8993 5.23775C29.3253 4.65777 29.0383 3.94326 29.0383 3.09721C29.0383 2.22126 29.3253 1.48881 29.8993 0.896875C30.4793 0.298958 31.1968 0 32.0518 0C32.9516 0 33.6901 0.29298 34.2641 0.872958C34.8441 1.45593 35.137 2.19734 35.137 3.09721C35.137 3.94326 34.8411 4.65777 34.2521 5.23775C33.6602 5.82072 32.9277 6.11071 32.0518 6.11071ZM40.0399 6.11071C39.1849 6.11071 38.4674 5.82072 37.8874 5.23775C37.3045 4.65777 37.0145 3.94326 37.0145 3.09721C37.0145 2.22126 37.3045 1.48881 37.8874 0.896875C38.4674 0.298958 39.1849 0 40.0399 0C40.9398 0 41.6782 0.29298 42.2522 0.872958C42.8322 1.45593 43.1252 2.19734 43.1252 3.09721C43.1252 3.94326 42.8292 4.65777 42.2403 5.23775C41.6483 5.82072 40.9159 6.11071 40.0399 6.11071Z" fill="#FF5900"/>
<path d="M66.4105 8.2034V24.4189C66.4105 27.4264 65.6213 29.7045 64.0428 31.2591C62.4702 32.8077 60.2669 33.579 57.4298 33.579C54.3744 33.579 51.9469 32.7389 50.1472 31.0558C48.3534 29.3756 47.4565 26.9272 47.4565 23.7134H55.2295C55.2295 24.7268 55.3909 25.4413 55.7198 25.8539C56.0546 26.2695 56.503 26.4757 57.071 26.4757C57.5404 26.4757 57.9081 26.3263 58.1712 26.0213C58.4343 25.7104 58.5658 25.1783 58.5658 24.4189V8.2034H66.4105Z" fill="#FF5900"/>
<path d="M76.702 33.579C73.6945 33.579 71.2161 32.8794 69.2639 31.4743C67.3087 30.0632 66.2504 27.9944 66.083 25.2679H74.4658C74.5764 26.7119 75.2132 27.4324 76.3791 27.4324C76.8007 27.4324 77.1594 27.3337 77.4554 27.1334C77.7484 26.9361 77.8978 26.6192 77.8978 26.1887C77.8978 25.5998 77.578 25.1214 76.9412 24.7537C76.3014 24.389 75.3089 23.9705 73.9635 23.4981C72.3522 22.9331 71.0218 22.38 69.9695 21.8359C68.9171 21.2858 68.0113 20.4936 67.2549 19.4562C66.4956 18.4128 66.1308 17.0735 66.1548 15.4382C66.1548 13.8059 66.5733 12.4127 67.4104 11.2647C68.2534 10.1167 69.4014 9.24974 70.8544 8.6578C72.3133 8.06886 73.9516 7.77289 75.7693 7.77289C78.8455 7.77289 81.288 8.48441 83.0997 9.90147C84.9084 11.3215 85.8621 13.3216 85.9578 15.9046H77.4793C77.4554 15.196 77.276 14.6908 76.9412 14.3858C76.6123 14.0749 76.2117 13.9195 75.7334 13.9195C75.4045 13.9195 75.1355 14.0331 74.9202 14.2543C74.705 14.4785 74.5973 14.7894 74.5973 15.1871C74.5973 15.7611 74.9112 16.2334 75.542 16.5981C76.1699 16.9659 77.1714 17.4083 78.5436 17.9255C80.1281 18.5175 81.4375 19.0855 82.4659 19.6356C83.4943 20.1797 84.3852 20.936 85.1446 21.9076C85.901 22.8733 86.2806 24.09 86.2806 25.5549C86.2806 27.0946 85.901 28.4728 85.1446 29.6925C84.3852 30.9123 83.2851 31.8659 81.8441 32.5506C80.4001 33.2382 78.6871 33.579 76.702 33.579Z" fill="#FF5900"/>
<path d="M101.294 33.3279L93.9755 22.4338V33.3279H86.095V8.2034H93.9755V18.7746L101.186 8.2034H110.095L101.438 20.2335L110.657 33.3279H101.294Z" fill="#FF5900"/>
<path d="M122.188 33.579C119.827 33.579 117.659 33.0259 115.683 31.9168C113.704 30.8017 112.134 29.262 110.972 27.3008C109.815 25.3337 109.238 23.1154 109.238 20.652C109.238 18.1976 109.815 15.9883 110.972 14.0271C112.134 12.06 113.704 10.5233 115.683 9.42314C117.659 8.32297 119.827 7.77289 122.188 7.77289C124.556 7.77289 126.721 8.32297 128.682 9.42314C130.649 10.5233 132.21 12.06 133.358 14.0271C134.506 15.9883 135.08 18.1976 135.08 20.652C135.08 23.1154 134.506 25.3337 133.358 27.3008C132.21 29.262 130.646 30.8017 128.67 31.9168C126.691 33.0259 124.532 33.579 122.188 33.579ZM122.188 26.2246C123.749 26.2246 124.957 25.7223 125.812 24.7178C126.664 23.7133 127.091 22.3591 127.091 20.652C127.091 18.93 126.664 17.5668 125.812 16.5623C124.957 15.5518 123.749 15.0436 122.188 15.0436C120.61 15.0436 119.393 15.5518 118.541 16.5623C117.686 17.5668 117.262 18.93 117.262 20.652C117.262 22.3591 117.686 23.7133 118.541 24.7178C119.393 25.7223 120.61 26.2246 122.188 26.2246Z" fill="#FF5900"/>
<path d="M155.201 14.4815V17.5668H163.01V23.4981H155.201V27.0497H164.074V33.3279H147.321V8.2034H164.074V14.4815H155.201Z" fill="#FF5900"/>
<path d="M188.215 33.3279H180.334L171.987 20.6879V33.3279H164.107V8.2034H171.987L180.334 21.0467V8.2034H188.215V33.3279Z" fill="#FF5900"/>
<path d="M199.282 8.2034C201.904 8.2034 204.203 8.73854 206.182 9.80582C208.158 10.8671 209.677 12.347 210.738 14.2424C211.806 16.1318 212.341 18.2813 212.341 20.6879C212.341 23.0796 211.806 25.238 210.738 27.1574C209.677 29.0707 208.158 30.5774 206.182 31.6776C204.203 32.7778 201.904 33.3279 199.282 33.3279H188.807V8.2034H199.282ZM198.577 26.2964C200.346 26.2964 201.749 25.815 202.786 24.8494C203.829 23.8778 204.352 22.4906 204.352 20.6879C204.352 18.8942 203.829 17.513 202.786 16.5384C201.749 15.5667 200.346 15.0794 198.577 15.0794H196.687V26.2964H198.577Z" fill="#FF5900"/>
<path d="M227.428 33.3279L220.11 22.4338V33.3279H212.229V8.2034H220.11V18.7746L227.32 8.2034H236.229L227.572 20.2335L236.791 33.3279H227.428Z" fill="#FF5900"/>
<mask id="mask0_644_2218" style="mask-type:luminance" maskUnits="userSpaceOnUse" x="128" y="5" width="22" height="33">
<path d="M128.558 5.00754H149.796V37.7255H128.558V5.00754Z" fill="white"/>
</mask>
<g mask="url(#mask0_644_2218)">
<path d="M149.381 17.8269C149.24 17.8059 148.881 17.8358 148.896 17.9823C148.914 18.1288 148.95 18.2903 148.908 18.356C148.866 18.4248 148.699 18.6998 148.699 18.6998C148.699 18.6998 148.538 18.5743 148.373 18.5384C148.206 18.5025 147.748 18.4666 147.665 18.4188C147.584 18.371 146.851 17.8388 146.702 17.7163C146.555 17.5907 146.095 17.2798 145.901 17.0765C145.706 16.8732 145.596 16.927 145.596 16.6639C145.596 16.3979 145.488 16.2753 145.294 16.0869C145.1 15.9016 144.989 15.7073 144.95 15.3545C144.911 15.0047 144.639 13.8119 144.532 13.5787C144.421 13.3455 144.274 12.6997 144.257 12.4426C144.242 12.1855 144.352 12.0689 144.328 11.7879C144.304 11.5069 144.28 11.4531 144.445 11.3604C144.606 11.2677 144.801 11.0495 144.801 10.9628C144.801 10.8791 144.265 10.8701 144.17 10.8014C144.077 10.7296 144.029 10.5981 143.946 10.4964C143.859 10.3948 143.805 10.2393 143.805 10.2393L143.898 10.1466C143.898 10.1466 144.28 10.326 144.529 10.2632C144.78 10.2004 144.878 9.50686 144.95 9.33646C145.019 9.16605 145.276 8.78339 145.3 8.59803C145.324 8.40969 145.339 8.23928 145.339 8.23928C145.339 8.23928 146.101 7.88053 146.343 7.58456C146.585 7.28859 146.732 6.23626 146.633 6.11369C146.532 5.98813 145.479 6.07482 145.387 6.06585C145.294 6.05689 144.609 5.05836 144.149 5.03744C143.691 5.01352 142.944 5.09125 142.49 5.30052C142.038 5.50979 141.659 6.01802 141.587 6.32894C141.518 6.63985 141.674 7.44106 141.62 7.59951C141.563 7.75497 140.708 8.15856 140.621 8.22134C140.534 8.28413 140.597 8.42464 140.597 8.42464C140.597 8.42464 139.485 8.11372 139.141 8.15856C138.801 8.2064 138.301 8.2901 138.107 8.53226C137.913 8.77442 137.234 9.5547 137.07 9.85067C136.908 10.1466 136.72 10.4874 136.597 10.5203C136.472 10.5502 135.545 10.6429 135.452 10.7206C135.357 10.7984 134.845 11.8656 134.594 12.7864C134.346 13.7042 134.158 15.6684 134.235 16.0092C134.313 16.353 134.394 17.0855 134.361 17.4741C134.331 17.8628 134.702 18.4248 134.735 18.643C134.768 18.8583 135.132 19.5608 135.078 19.6535C135.022 19.7462 134.759 19.9345 134.905 20.1378C135.055 20.3381 135.593 20.5653 135.593 20.5653C135.593 20.5653 135.575 21.6864 135.655 22.0452C135.733 22.4009 136.02 22.4876 136.02 22.4876L136.262 22.3083C136.262 22.3083 135.942 22.108 135.975 21.6625C136.005 21.2171 136.014 20.6341 136.014 20.6341L136.325 20.6431C136.325 20.6431 136.567 21.0766 136.977 21.2559L137.174 21.0616C137.174 21.0616 136.878 20.8763 136.759 20.6191C136.759 20.6191 137.234 20.7597 137.5 20.7507C137.763 20.7417 138.077 20.6191 138.077 20.6191C138.077 20.6191 138.161 21.5369 138.209 21.6386C138.253 21.7402 138.418 21.7402 138.418 21.7851C138.418 21.8329 138.684 23.1723 139.001 23.6326C139.321 24.093 139.608 24.2336 139.608 24.2336C139.608 24.2336 139.578 24.5744 139.572 24.9451L130.217 33.0528C130.071 32.9093 129.939 32.8256 129.907 32.8555C129.874 32.8884 129.945 33.0229 130.071 33.1784L128.582 34.4699C128.582 34.4699 128.564 34.5536 128.6 34.6014C128.639 34.6463 128.693 34.6343 128.693 34.6343L130.217 33.3398C130.361 33.4833 130.492 33.567 130.528 33.5371C130.561 33.5042 130.492 33.3697 130.364 33.2143L139.584 25.3875C139.596 25.54 139.62 25.6686 139.659 25.7493C139.823 26.0751 139.916 26.5684 139.895 26.7538C139.871 26.9421 139.823 27.1394 139.823 27.2441C139.823 27.3487 139.859 27.5729 139.67 27.7134C139.485 27.8539 139.24 28.2844 138.935 28.4489C138.633 28.6133 137.44 29.1963 136.729 29.6297C136.014 30.0602 134.905 30.9362 134.648 31.2292C134.391 31.5222 133.993 31.848 133.922 31.848C133.853 31.848 133.309 31.8181 133.049 31.8839C132.785 31.9497 132.528 32.0693 132.51 32.0693C132.49 32.0693 132.253 32.0244 132.059 32.1051C131.862 32.1858 132.176 33.6747 132.265 33.8331C132.355 33.9916 132.54 34.1141 132.552 34.3354C132.564 34.5566 132.711 35.6597 132.896 36.1261C133.078 36.5955 133.688 37.3548 133.874 37.4236C134.056 37.4924 134.268 37.2831 134.268 37.2831C134.268 37.2831 134.43 37.1725 134.391 36.9303C134.352 36.6882 134.226 36.1201 134.28 35.8929C134.334 35.6687 134.645 35.3727 134.669 35.0529C134.693 34.733 134.738 34.2965 134.8 34.2427C134.863 34.1889 135.47 33.9318 135.518 33.8062C135.566 33.6836 135.916 33.7374 135.954 33.5491C135.993 33.3637 136.475 32.996 136.765 32.7628C137.052 32.5296 138.134 31.6806 138.546 31.4235C138.959 31.1664 139.434 31.0827 139.584 31.0199C139.73 30.9571 139.88 30.7 139.987 30.6462C140.098 30.5894 140.573 30.3951 140.798 30.3024C141.025 30.2097 141.422 30.0842 141.578 29.9765C141.733 29.8659 141.943 29.5311 141.943 29.5311C141.943 29.5311 142.02 31.0498 141.966 31.3458C141.913 31.6417 141.865 32.99 141.865 33.5431C141.865 34.0962 141.88 35.1934 141.928 35.2771C141.975 35.3638 142.248 35.4266 142.209 35.5192C142.17 35.6149 141.952 35.8272 141.981 35.9976C142.014 36.171 142.209 36.5686 142.197 36.8526C142.185 37.1366 142.143 37.3967 142.289 37.4385C142.439 37.4774 142.941 37.5342 143.518 37.5252C144.092 37.5163 144.065 37.3339 144.179 37.301C144.292 37.2651 144.786 37.2741 145.076 37.3668C145.363 37.4595 145.984 37.5282 146.481 37.4953C146.974 37.4595 147.491 37.3728 147.617 37.2891C147.742 37.2024 147.548 36.9542 147.548 36.9542C147.548 36.9542 147.408 36.5447 147.046 36.4908C146.684 36.434 146.31 36.3892 146.059 36.2517C145.811 36.1142 145.632 35.86 145.434 35.7375C145.33 35.6747 145.174 35.5641 145.04 35.4475L145.315 34.3324C145.518 34.3652 145.674 34.3593 145.683 34.3114C145.692 34.2666 145.554 34.1978 145.363 34.147L148.729 20.664C148.881 20.6879 149.064 20.655 149.094 20.6251C149.138 20.5833 149.171 20.4756 149.171 20.4756C149.171 20.4756 149.381 20.4188 149.446 20.3501C149.515 20.2843 149.473 20.1558 149.473 20.1558C149.473 20.1558 149.635 20.087 149.644 19.9584C149.653 19.8269 149.572 19.7283 149.572 19.7283C149.572 19.7283 149.736 19.5818 149.727 19.4442C149.718 19.3037 149.506 19.0586 149.423 19.0018C149.339 18.945 149.411 18.5982 149.485 18.5234C149.557 18.4517 149.889 18.359 149.898 18.2275C149.91 18.0989 149.521 17.8508 149.381 17.8299V17.8269ZM145.15 34.1022C144.95 34.0693 144.795 34.0783 144.783 34.1231C144.774 34.1679 144.911 34.2367 145.106 34.2875L144.869 35.2801C144.825 35.2322 144.795 35.1844 144.78 35.1485C144.723 34.9811 144.756 34.8914 144.66 34.8197C144.567 34.7479 144.445 34.6642 144.445 34.6642C144.445 34.6642 144.63 34.1769 144.609 34.0244C144.588 33.875 144.409 33.2083 144.391 33.0289C144.376 32.8465 144.708 31.7524 144.612 31.3428C144.52 30.9332 144.439 30.5147 144.475 30.2665C144.508 30.0214 145.07 29.3697 145.07 28.7837C145.07 28.2007 144.732 27.2769 144.672 26.9152C144.612 26.5535 144.579 25.6058 144.475 25.1753C144.367 24.7418 144.134 24.4159 144.041 23.9466C143.949 23.4802 143.727 23.235 143.751 23.0377C143.772 22.8374 143.832 22.6042 143.901 22.4278C143.972 22.2544 143.946 21.9316 143.946 21.9316C143.946 21.9316 144.107 21.9106 144.179 21.8837C144.254 21.8598 144.289 21.7402 144.289 21.7402C144.289 21.7402 144.499 21.8419 144.585 21.812C144.672 21.7821 144.747 21.5938 144.747 21.5938C144.747 21.5938 144.98 21.5997 145.067 21.513C145.156 21.4233 145.165 21.232 145.165 21.232C145.165 21.232 145.467 21.1483 145.515 21.0586C145.56 20.9719 145.407 20.6221 145.452 20.5773C145.494 20.5324 145.847 20.5085 146.032 20.4846C146.221 20.4577 145.856 19.9973 145.68 19.8508C145.503 19.7043 145.378 19.6535 145.306 19.7043C145.234 19.7552 145.213 19.8538 145.144 19.8927C145.076 19.9286 144.989 19.9584 144.989 19.9584C144.989 19.9584 144.813 19.7163 144.612 19.6266C144.418 19.5369 144.011 19.5788 144.011 19.5788C144.011 19.5788 143.793 19.3366 143.757 19.238C143.721 19.1393 143.877 18.4009 143.877 18.4009C143.877 18.4009 144.842 19.0496 145.228 19.4054C145.611 19.7581 146.451 19.9973 146.696 20.0541C146.941 20.1109 147.315 20.1677 147.414 20.1468C147.512 20.1259 147.554 20.0272 147.554 20.0272C147.554 20.0272 147.703 20.0332 147.802 20.1169C147.877 20.1797 148.197 20.3471 148.4 20.4816L145.15 34.0992V34.1022Z" fill="#FF5900"/>
</g>
</svg>
