<svg width="28" height="28" viewBox="0 0 28 28" fill="none" xmlns="http://www.w3.org/2000/svg">
<path d="M14 0C6.28052 0 0 6.27991 0 14C0 21.7201 6.28052 28 14 28C21.7195 28 28 21.7201 28 14C28 6.27991 21.7195 0 14 0ZM21.7517 6.50026L15.6094 13.1539C15.7433 13.4077 15.8261 13.6932 15.8261 14C15.8261 14.4626 15.6483 14.8808 15.3647 15.2028L17.5755 19.183C17.7392 19.4764 17.6327 19.8471 17.3393 20.0103C17.2456 20.0626 17.1439 20.087 17.0441 20.087C16.8298 20.087 16.6229 19.9737 16.5115 19.7735L14.3013 15.7957C14.2027 15.8121 14.1035 15.8261 14 15.8261C12.9914 15.8261 12.1739 15.0086 12.1739 14C12.1739 12.9914 12.9914 12.1739 14 12.1739C14.2557 12.1739 14.4991 12.2275 14.7201 12.3224L20.857 5.67365C21.0852 5.42774 21.4699 5.4113 21.717 5.63956C21.9642 5.86783 21.9794 6.25252 21.7517 6.50026Z" fill="#362F33"/>
</svg>
